<svg width="24" height="24" viewBox="0 0 24 24" fill="none" xmlns="http://www.w3.org/2000/svg">
<g id="vuesax/outline/heart">
<g id="heart">
<path id="Vector" fill-rule="evenodd" clip-rule="evenodd" d="M11.14 21.52C11.39 21.61 11.69 21.65 12 21.65C12.31 21.65 12.61 21.61 12.86 21.52C16.68 20.21 22.75 15.57 22.75 8.68998C22.75 5.19998 19.92 2.34998 16.44 2.34998C14.75 2.34998 13.17 3.00998 12 4.18998C10.83 3.00998 9.25 2.34998 7.56 2.34998C4.08 2.34998 1.25 5.18998 1.25 8.68998C1.25 15.56 7.32 20.21 11.14 21.52ZM2.75 8.68998C2.75 6.01998 4.91 3.84998 7.56 3.84998C9.08 3.84998 10.48 4.54998 11.41 5.78998C11.69 6.16998 12.33 6.16998 12.61 5.78998C13.52 4.55998 14.93 3.84998 16.45 3.84998C19.1 3.84998 21.26 6.01998 21.26 8.68998C21.26 15.53 14.68 19.32 12.38 20.11C12.2 20.17 11.81 20.17 11.63 20.11C9.32 19.32 2.75 15.52 2.75 8.68998Z" fill="#857371"/>
</g>
</g>
</svg>
