<svg width="24" height="24" viewBox="0 0 24 24" fill="none" xmlns="http://www.w3.org/2000/svg">
<g id="vuesax/outline/like">
<g id="like">
<path id="Vector" d="M16.2794 22.0999H12.4794C11.9194 22.0999 10.6994 21.9299 10.0494 21.2799L7.01937 18.9399L7.93938 17.7499L11.0394 20.15C11.2894 20.3899 11.9194 20.5899 12.4794 20.5899H16.2794C17.1794 20.5899 18.1494 19.8699 18.3494 19.0599L20.7694 11.71C20.9294 11.27 20.8994 10.87 20.6894 10.58C20.4694 10.27 20.0694 10.09 19.5794 10.09H15.5794C15.0594 10.09 14.5794 9.86999 14.2494 9.48999C13.9094 9.09999 13.7594 8.57999 13.8394 8.03999L14.3394 4.82999C14.4594 4.26999 14.0794 3.63999 13.5394 3.45999C13.0494 3.27999 12.4194 3.53999 12.1994 3.85999L8.09938 9.95999L6.85938 9.12999L10.9594 3.02999C11.5894 2.08999 12.9694 1.63999 14.0494 2.04999C15.2994 2.45999 16.0994 3.83999 15.8194 5.11999L15.3294 8.26999C15.3194 8.33999 15.3194 8.43999 15.3894 8.51999C15.4394 8.56999 15.5094 8.59999 15.5894 8.59999H19.5894C20.5694 8.59999 21.4194 9.00999 21.9194 9.71999C22.4094 10.41 22.5094 11.32 22.1894 12.1999L19.7994 19.4799C19.4294 20.9299 17.8894 22.0999 16.2794 22.0999Z" fill="#857371"/>
<path id="Vector_2" fill-rule="evenodd" clip-rule="evenodd" d="M4.37891 21H5.37891C7.22891 21 8.12891 20.13 8.12891 18.35V8.54996C8.12891 6.76996 7.22891 5.89996 5.37891 5.89996H4.37891C2.52891 5.89996 1.62891 6.76996 1.62891 8.54996V18.35C1.62891 20.13 2.52891 21 4.37891 21ZM3.12891 8.54996C3.12891 7.65996 3.28891 7.39996 4.37891 7.39996H5.37891C6.46891 7.39996 6.62891 7.65996 6.62891 8.54996V18.35C6.62891 19.24 6.46891 19.5 5.37891 19.5H4.37891C3.28891 19.5 3.12891 19.24 3.12891 18.35V8.54996Z" fill="#857371"/>
</g>
</g>
</svg>
